#!OML:ASF E:\acrobat2\Project_11_07_03\Capture day 1\Session 1\Acrobat.ASF
:FULLY-SPECIFIED
:DEGREES
2038
root 11.1529 4.15172 10.6304 -82.5439 2.91446 168.791
lowerback -12.789639491358392 -4.738839447057861 -3.836310225343239
upperback -7.473999659011102 -8.544349265179516 10.419416329158114
thorax -2.2317647420443505 -5.125997754464801 10.357251344054424
lowerneck -3.8473175078543798 -17.242837221830886 14.587501384444026
upperneck -31.414489781339988 -23.194378647130236 1.1309120842582716
head -12.970085905362781 -7.1669444340758055 -2.7867274812654417
rclavicle 2.38542e-15 -1.58034e-14
rhumerus -36.431284324275495 -29.02763224931514 27.765741362396525
rradius 58.84391914085447
rwrist -28.00074559654285
rhand -27.08839743652836 -36.33575007228609
rfingers 6.09442791606475
rthumb 5.956590257287687 -69.46294087099788
lclavicle 2.38542e-15 -1.58034e-14
lhumerus 9.446207057945717 3.99915051868759 -49.13225262929066
lradius 65.94017996208873
lwrist 29.42567061694018
lhand -15.549488470974225 -29.719855291234502
lfingers 8.514793711559163
lthumb 9.58501583859649 -3.561919180358729
rfemur 3.0975457044505834 1.8433705798957127 2.07962596381212
rtibia 57.92834359897551
rfoot 10.350090957719432 -19.306964437038197
rtoes 29.374883684178467
lfemur -12.707352999831675 -12.375003874361768 0.2696687592320588
ltibia 45.183761318687466
lfoot 42.65067047271912 17.068362646830604
ltoes 4.47688
2039
root 11.1529 4.15172 10.6304 -82.5439 2.91446 168.791
lowerback -12.747847058357475 -4.744264830376901 -3.8940841965200517
upperback -7.391216989801422 -8.609080705636556 10.453256730452
thorax -2.1680221668784707 -5.033290744003613 10.346980021382215
lowerneck -3.8299244278990403 -17.25584747182286 14.596373197173266
upperneck -31.447138684181816 -23.265586405222013 1.1227657859081972
head -12.99172258819821 -7.18193300101189 -2.740890351080764
rclavicle 2.38542e-15 -1.58034e-14
rhumerus -34.01783293831829 -25.989235653144668 32.4016543052802
rradius 56.945779050138256
rwrist -27.96370041696692
rhand -27.1158661731594 -36.38096186698504
rfingers 6.172122224897372
rthumb 6.056274255916003 -69.52491223082794
lclavicle 2.38542e-15 -1.58034e-14
lhumerus 7.5259465463212685 5.287261406949924 -52.32286237466101
lradius 65.82931009164317
lwrist 29.50026634076935
lhand -15.60122445277046 -29.75038724697647
lfingers 8.485151375732567
lthumb 9.515865802225639 -3.543778833482348
rfemur 3.4259110545905305 2.070668413063496 2.5092674522106697
rtibia 61.592148543218535
rfoot 10.131460461478687 -19.604666540123663
rtoes 29.26407774311427
lfemur -12.711138519466715 -12.782668606506117 -0.17572420828165303
ltibia 44.30870021680995
lfoot 42.83337918172122 17.36999106206492
ltoes 4.47688
2040
root 11.1529 4.15172 10.6304 -82.5439 2.91446 168.791
lowerback -12.798447828870609 -4.832642260672723 -3.8193914576974723
upperback -7.3001135351656075 -8.663957428096719 10.453181288823592
thorax -2.1590709930315093 -5.015005784682417 10.252632193517476
lowerneck -3.747669095362962 -17.156475374165186 14.551139306248967
upperneck -31.531347083364146 -23.282943967137403 1.0730294283769735
head -13.003274736864496 -7.093289822360671 -2.819763292141576
rclavicle 2.38542e-15 -1.58034e-14
rhumerus -36.97853000021489 -23.02589508484597 35.84760643026709
rradius 59.47784686425996
rwrist -27.922328769477737
rhand -27.154012287520093 -36.386420734200144
rfingers 6.115461504386718
rthumb 6.0917287572734935 -69.43315423969392
lclavicle 2.38542e-15 -1.58034e-14
lhumerus 6.161398203211373 1.815765574331286 -53.768789730753745
lradius 65.28771483204194
lwrist 29.56536878409199
lhand -15.509053798426576 -29.847103725843844
lfingers 8.525391686862147
lthumb 9.470081403273849 -3.625026905447024
rfemur 3.3665900984724817 1.7507711846034915 2.5758616683950453
rtibia 56.815558571082
rfoot 9.818123072645148 -19.297808272303396
rtoes 28.955186372983803
lfemur -13.1856750203548 -13.111072338297168 0.03420762713824821
ltibia 49.14159609611493
lfoot 42.74113971231083 17.266399593544595
ltoes 4.47688
2041
root 11.1529 4.15172 10.6304 -82.5439 2.91446 168.791
lowerback -12.840511856805378 -4.842619729372103 -3.856798723904368
upperback -7.379034202750948 -8.636542617243666 10.362492514151514
thorax -2.1214872862036525 -5.0401048845180885 10.335098273440803
lowerneck -3.734317980489736 -17.173719098706066 14.606549558355171
upperneck -31.47883830569181 -23.185937952034454 1.1068261433153295
head -13.066581626625615 -7.111452218020742 -2.792997862018705
rclavicle 2.38542e-15 -1.58034e-14
rhumerus -36.010572114762475 -26.579470247350937 35.65550974805204
rradius 57.03199069752654
rwrist -27.958446234664176
rhand -27.153970195611628 -36.35782634216093
rfingers 6.162669532557092
rthumb 6.157153402088912 -69.46592999126646
lclavicle 2.38542e-15 -1.58034e-14
lhumerus 8.728129375805633 5.003636422342014 -52.177604796667666
lradius 66.87424267944624
lwrist 29.520715309640288
lhand -15.412913217758708 -29.760322389182047
lfingers 8.45496304278989
lthumb 9.42908682266472 -3.641564159807378
rfemur 3.5065761896396888 1.3614736185381395 2.644138214709563
rtibia 59.20816452053945
rfoot 9.503996575783958 -18.870038734345624
rtoes 29.367631583693342
lfemur -13.559563164572593 -12.860701012394058 0.19077232558381196
ltibia 47.24224532409104
lfoot 42.51294239876496 17.027609550164335
ltoes 4.47688
2042
root 11.1529 4.15172 10.6304 -82.5439 2.91446 168.791
lowerback -12.76419513513467 -4.800588485675492 -3.8650123708231203
upperback -7.350325670066953 -8.730120919906001 10.4110950364052
thorax -2.1069655879408935 -5.083759315605551 10.301044433306233
lowerneck -3.7404929326208927 -17.086630843290674 14.633867314756694
upperneck -31.422618358000392 -23.153266898280435 1.1559730279886313
head -13.094270462431977 -7.0842500683267655 -2.735071382128524
rclavicle 2.38542e-15 -1.58034e-14
rhumerus -34.10327506160402 -23.359684046744945 33.9339796210964
rradius 59.04932314430978
rwrist -27.943660501921
rhand -27.158809788511796 -36.2735229344245
rfingers 6.087242960700387
rthumb 6.13201314277433 -69.39918652250456
lclavicle 2.38542e-15 -1.58034e-14
lhumerus 11.581156248795171 0.30548677128211743 -50.77932241971363
lradius 65.04548283310342
lwrist 29.572685214764135
lhand -15.344966609380558 -29.835926918947393
lfingers 8.355226216228148
lthumb 9.403598212370252 -3.6095701066802865
rfemur 3.676182868606081 1.775191084838708 2.548451413042134
rtibia 57.54408434141264
rfoot 9.495673674990009 -18.42898005783443
rtoes 29.42042823444411
lfemur -13.261079671032256 -13.083790275899014 0.6191029403016178
ltibia 43.11712962939017
lfoot 42.89744707848018 16.527628081843684
ltoes 4.47688
2043
root 11.1529 4.15172 10.6304 -82.5439 2.91446 168.791
lowerback -12.824188241285903 -4.859601869966905 -3.829489659436465
upperback -7.375860746571316 -8.759968598741409 10.461530775846153
thorax -2.080280446769585 -5.000692804162381 10.297559115684432
lowerneck -3.6662993227242375 -17.106035240414368 14.596852204078399
upperneck -31.467018797713468 -23.153768713395554 1.1675072461870257
head -13.164822562592766 -7.171345134209003 -2.8204267264241674
rclavicle 2.38542e-15 -1.58034e-14
rhumerus -31.300948853008986 -26.436050585348656 32.54930377233913
rradius 58.54478502937238
rwrist -28.036874741086358
rhand -27.241511623059118 -36.18976260737312
rfingers 6.050687267594283
rthumb 6.228091383994409 -69.46251197091125
lclavicle 2.38542e-15 -1.58034e-14
lhumerus 8.00842359020156 -0.9102069716237104 -51.73688040074951
lradius 64.80405491826677
lwrist 29.649416939502597
lhand -15.261962468024633 -29.872036255624344
lfingers 8.401148985746186
lthumb 9.412029394570219 -3.6727091941298955
rfemur 3.5601827013062963 1.4458320202957502 2.282257970081943
rtibia 59.68564648091827
rfoot 9.671654992192927 -18.598297227283446
rtoes 29.516523317001518
lfemur -12.897559071840531 -13.578831764453575 1.0942887252436946
ltibia 41.55803775639172
lfoot 43.308562038286894 16.266764805633308
ltoes 4.47688
2044
root 11.1529 4.15172 10.6304 -82.5439 2.91446 168.791
lowerback -12.861216701357456 -4.778943919310142 -3.925112181608656
upperback -7.31967391436014 -8.812532521554328 10.484279368031705
thorax -2.1043536847696216 -5.0269894700298074 10.208086747921536
lowerneck -3.642654636364063 -17.133134537051617 14.505792380139304
upperneck -31.4097909943776 -23.06475706387255 1.1687421338748587
head -13.180339255925764 -7.141052632677933 -2.796830237043243
rclavicle 2.38542e-15 -1.58034e-14
rhumerus -31.452107592670835 -27.905636766914107 28.418964051633306
rradius 57.61227860566632
rwrist -28.02962149740772
rhand -27.244160643222738 -36.14335315480738
rfingers 6.112496079974511
rthumb 6.319026467890505 -69.44664883933352
lclavicle 2.38542e-15 -1.58034e-14
lhumerus 9.576746457012147 3.208504996917131 -48.769275929930956
lradius 62.68143029629215
lwrist 29.584666963140343
lhand -15.221383570284846 -29.865178696345225
lfingers 8.442176425254742
lthumb 9.4778827029826 -3.731057356800799
rfemur 3.9378601571194594 1.4630282625624025 2.1323748167741656
rtibia 58.722992184449815
rfoot 9.629432970963483 -18.60751806902821
rtoes 29.48744380762877
lfemur -13.31310272466088 -13.692336658748934 1.3695216489761557
ltibia 42.0796157154313
lfoot 43.57371677869372 16.212212389349276
ltoes 4.47688
2045
root 11.1529 4.15172 10.6304 -82.5439 2.91446 168.791
lowerback -12.780491730221243 -4.683508032946545 -3.9916408489506634
upperback -7.320073700901579 -8.848781571079485 10.392104446935102
thorax -2.0891871297631046 -5.090085806001335 10.259492293530386
lowerneck -3.69228571738912 -17.131668014445214 14.488125302231346
upperneck -31.436382630698716 -23.143771715168178 1.1892972627380833
head -13.118368046800926 -7.068082134012368 -2.7399973379510794
rclavicle 2.38542e-15 -1.58034e-14
rhumerus -33.235084255057195 -25.120593346165844 27.778211100302453
rradius 57.01508129849289
rwrist -27.956526235826495
rhand -27.218157621946315 -36.17172438832225
rfingers 6.01530209379446
rthumb 6.3848108331477 -69.45413730630878
lclavicle 2.38542e-15 -1.58034e-14
lhumerus 11.190718228744053 6.691518133964749 -46.14579556214898
lradius 59.86682883949533
lwrist 29.485250815682765
lhand -15.121956882291721 -29.809146982121785
lfingers 8.415954074787402
lthumb 9.387078641243491 -3.773918879782582
rfemur 3.9358596097878564 1.2017512657447327 2.1166997852757907
rtibia 54.61252913942843
rfoot 9.256813345279403 -18.36736068475538
rtoes 29.882368291711703
lfemur -12.847535374634894 -13.637206279771384 1.1939353610428587
ltibia 37.433858796424516
lfoot 44.0636038645119 16.312555233048226
ltoes 4.47688
2046
root 11.1529 4.15172 10.6304 -82.5439 2.91446 168.791
lowerback -12.776937432672431 -4.608461343119726 -4.007655007323636
upperback -7.322769591249996 -8.8752748883485 10.300455497245204
thorax -2.0469409984935996 -5.028167194812345 10.312419167799403
lowerneck -3.7275562586808597 -17.050620157016336 14.443424300498934
upperneck -31.421397708915492 -23.17219559097793 1.27140879806571
head -13.025991990934676 -7.111425232994838 -2.7125861134232294
rclavicle 2.38542e-15 -1.58034e-14
rhumerus -30.854609802455688 -26.438893554911203 25.82237044880818
rradius 58.688068163328936
rwrist -28.0067944291609
rhand -27.129650720228245 -36.07664975241939
rfingers 6.100885135842941
rthumb 6.324776894790513 -69.42450991178534
lclavicle 2.38542e-15 -1.58034e-14
lhumerus 6.678582837358983 4.617111863860086 -48.235001637418165
lradius 61.090943386091524
lwrist 29.458329553842145
lhand -15.046482843197778 -29.821858704768726
lfingers 8.490718720646962
lthumb 9.380364211916072 -3.8438814745621115
rfemur 3.9302516463893564 1.4505213075851286 1.9876513904383721
rtibia 52.31968975630613
rfoot 9.121647673095763 -18.627576791488547
rtoes 29.680607891516765
lfemur -13.27687306720653 -13.329049498059767 1.379649839108247
ltibia 35.925458759703176
lfoot 43.636638168333455 16.510805937022397
ltoes 4.47688
